<svg width="259" height="140" viewBox="0 0 259 140" fill="none" xmlns="http://www.w3.org/2000/svg">
<path d="M100.142 0L70.3031 67.6H39.9811L55.5684 32.2979C55.5796 32.2865 55.5846 32.2728 55.5826 32.2591L69.82 0H100.142Z" fill="url(#paint0_linear_112:298)"/>
<path d="M134.954 0L105.115 67.6H74.7932L90.0679 32.9947L104.632 0H134.954Z" fill="url(#paint1_linear_112:298)"/>
<path d="M165.148 67.6H134.84L129.455 55.412V55.4022L122.109 38.7607L137.27 4.4238L165.148 67.6Z" fill="url(#paint2_linear_112:298)"/>
<path d="M196.807 2.18066L166.5 2.3379L161.223 14.5535L161.223 14.5634L154.024 31.2426L169.488 65.5L196.807 2.18066Z" fill="url(#paint3_linear_112:298)"/>
<path d="M196.807 2.18066L166.5 2.3379L161.223 14.5535L161.223 14.5634L154.024 31.2426L169.488 65.5L196.807 2.18066Z" fill="url(#paint4_linear_112:298)"/>
<path d="M228.1 67.5375H197.792L192.407 55.3495V55.3397L185.061 38.6982L200.222 4.3613L228.1 67.5375Z" fill="url(#paint5_linear_112:298)"/>
<g style="mix-blend-mode:screen" opacity="0.4">
<g style="mix-blend-mode:screen" opacity="0.4">
<path d="M96.2915 1.9883L43.8317 65.6118L71.923 1.9883H96.2915Z" fill="white"/>
</g>
</g>
<g style="mix-blend-mode:screen" opacity="0.4">
<g style="mix-blend-mode:screen" opacity="0.4">
<path d="M131.103 1.9883L78.6438 65.6118L106.735 1.9883H131.103Z" fill="white"/>
</g>
</g>
<g style="mix-blend-mode:multiply" opacity="0.3">
<g style="mix-blend-mode:multiply" opacity="0.3">
<path d="M137.27 4.4238L129.455 55.4071L122.106 38.7606L137.27 4.4238Z" fill="black"/>
</g>
</g>
<g style="mix-blend-mode:multiply" opacity="0.3">
<g style="mix-blend-mode:multiply" opacity="0.3">
<path d="M134.954 0L105.115 67.6H74.7932C79.8516 67.3912 84.8958 67.3017 89.9542 67.1427L97.5276 66.9836L104.305 66.8733C106.55 61.3758 108.866 55.8886 111.254 50.4117L114.948 41.9617L118.727 33.5216C121.299 27.9049 123.9 22.298 126.585 16.7012C127.949 13.9176 129.285 11.1142 130.691 8.34064C132.098 5.56706 133.476 2.76265 134.954 0Z" fill="black"/>
</g>
</g>
<g style="mix-blend-mode:multiply" opacity="0.3">
<g style="mix-blend-mode:multiply" opacity="0.3">
<path d="M134.954 0L105.115 67.6H74.7932C79.8516 67.3912 84.8958 67.3017 89.9542 67.1427L97.5276 66.9836L104.305 66.8733C106.55 61.3758 108.866 55.8886 111.254 50.4117L114.948 41.9617L118.727 33.5216C121.299 27.9049 123.9 22.298 126.585 16.7012C127.949 13.9176 129.285 11.1142 130.691 8.34064C132.098 5.56706 133.476 2.76265 134.954 0Z" fill="black"/>
</g>
</g>
<g style="mix-blend-mode:multiply" opacity="0.3">
<g style="mix-blend-mode:multiply" opacity="0.3">
<path d="M100.142 0L70.3031 67.6H39.9811C45.0395 67.3912 50.0837 67.3017 55.1421 67.1427L62.7155 66.9836L69.4932 66.8733C71.7382 61.3758 74.0543 55.8886 76.4414 50.4117L80.1358 41.9617L83.9153 33.5216C86.4872 27.9049 89.0874 22.298 91.7729 16.7012C93.137 13.9176 94.4726 11.1142 95.8793 8.34064C97.286 5.56706 98.6643 2.76265 100.142 0Z" fill="black"/>
</g>
</g>
<g style="mix-blend-mode:multiply" opacity="0.3">
<g style="mix-blend-mode:multiply" opacity="0.3">
<path d="M100.142 0L70.3031 67.6H39.9811C45.0395 67.3912 50.0837 67.3017 55.1421 67.1427L62.7155 66.9836L69.4932 66.8733C71.7382 61.3758 74.0543 55.8886 76.4414 50.4117L80.1358 41.9617L83.9153 33.5216C86.4872 27.9049 89.0874 22.298 91.7729 16.7012C93.137 13.9176 94.4726 11.1142 95.8793 8.34064C97.286 5.56706 98.6643 2.76265 100.142 0Z" fill="black"/>
</g>
</g>
<g style="mix-blend-mode:multiply" opacity="0.3">
<g style="mix-blend-mode:multiply" opacity="0.3">
<path d="M91.8447 0C88.1788 0.267418 84.5129 0.437412 80.8327 0.566647C78.9998 0.636235 77.1668 0.705823 75.3338 0.745588C73.8135 0.785353 72.2931 0.825116 70.7727 0.844999C70.3038 2.00812 69.835 3.16229 69.3518 4.32441L67.6041 8.37146C67.0358 9.71252 66.3964 11.0556 65.7996 12.3976C65.2028 13.7397 64.5776 15.0818 63.9382 16.4139C63.2988 17.746 62.6736 19.098 61.9916 20.4202C61.3095 21.7423 60.6701 23.0844 59.9739 24.4066C58.5956 27.0509 57.1605 29.6655 55.5833 32.2601L69.8207 0.000993571L91.8447 0Z" fill="black"/>
</g>
</g>
<g style="mix-blend-mode:multiply" opacity="0.3">
<g style="mix-blend-mode:multiply" opacity="0.3">
<path d="M127.139 0C123.388 0.267418 119.637 0.437412 115.886 0.566647C114.01 0.64485 112.134 0.704498 110.259 0.745588C108.696 0.785353 107.147 0.825116 105.584 0.853946L104.121 4.40394L102.344 8.53947L100.497 12.6541C99.8863 14.0369 99.2469 15.3979 98.5933 16.7598C97.9397 18.1218 97.3003 19.4936 96.604 20.8556C95.9078 22.2175 95.2684 23.5805 94.5437 24.9225C93.1512 27.6365 91.6735 30.3305 90.0679 32.9948L104.632 0H127.139Z" fill="black"/>
</g>
</g>
<g style="mix-blend-mode:multiply" opacity="0.3">
<g style="mix-blend-mode:multiply" opacity="0.3">
<path d="M149.987 67.1317C154.548 67.0233 159.095 66.9329 163.656 66.8644C162.562 64.5679 161.496 62.2714 160.431 59.9652C159.209 57.3505 158.015 54.7258 156.85 52.0908C154.477 46.8428 152.189 41.5641 149.916 36.2952L146.577 28.3611L143.337 20.4082C142.286 17.7539 141.22 15.1007 140.24 12.4364C139.231 9.76221 138.193 7.10692 137.27 4.4238L165.148 67.6H134.84C139.884 67.3752 144.943 67.2819 149.987 67.1317Z" fill="black"/>
</g>
</g>
<path d="M63.161 0L33.322 67.6H3L18.2747 32.9947L32.8389 0H63.161Z" fill="url(#paint6_linear_112:298)"/>
<g style="mix-blend-mode:screen" opacity="0.4">
<g style="mix-blend-mode:screen" opacity="0.4">
<path d="M59.3103 1.9883L6.85059 65.6118L34.9418 1.9883H59.3103Z" fill="white"/>
</g>
</g>
<g style="mix-blend-mode:multiply" opacity="0.3">
<g style="mix-blend-mode:multiply" opacity="0.3">
<path d="M63.161 0L33.322 67.6H3C8.05841 67.3912 13.1026 67.3017 18.161 67.1427L25.7344 66.9836L32.5121 66.8733C34.7571 61.3758 37.0732 55.8886 39.4603 50.4117L43.1547 41.9617L46.9343 33.5216C49.5061 27.9049 52.1063 22.298 54.7919 16.7012C56.1559 13.9176 57.4916 11.1142 58.8983 8.34064C60.3049 5.56706 61.6832 2.76265 63.161 0Z" fill="black"/>
</g>
</g>
<g style="mix-blend-mode:multiply" opacity="0.3">
<g style="mix-blend-mode:multiply" opacity="0.3">
<path d="M63.161 0L33.322 67.6H3C8.05841 67.3912 13.1026 67.3017 18.161 67.1427L25.7344 66.9836L32.5121 66.8733C34.7571 61.3758 37.0732 55.8886 39.4603 50.4117L43.1547 41.9617L46.9343 33.5216C49.5061 27.9049 52.1063 22.298 54.7919 16.7012C56.1559 13.9176 57.4916 11.1142 58.8983 8.34064C60.3049 5.56706 61.6832 2.76265 63.161 0Z" fill="black"/>
</g>
</g>
<g style="mix-blend-mode:multiply" opacity="0.3">
<g style="mix-blend-mode:multiply" opacity="0.3">
<path d="M55.346 0C51.5948 0.267418 47.8436 0.437412 44.0924 0.566647C42.2168 0.64485 40.3412 0.704498 38.4657 0.745588C36.9027 0.785353 35.3539 0.825116 33.7909 0.853946L32.3274 4.40394L30.5512 8.53947L28.7041 12.6541C28.0931 14.0369 27.4537 15.3979 26.8001 16.7598C26.1464 18.1218 25.507 19.4936 24.8108 20.8556C24.1146 22.2175 23.4752 23.5805 22.7505 24.9225C21.358 27.6365 19.8803 30.3305 18.2747 32.9948L32.8389 0H55.346Z" fill="black"/>
</g>
</g>
<path d="M17.5488 124.586C14.7754 124.527 12.334 123.863 10.2246 122.594C8.13477 121.324 6.50391 119.488 5.33203 117.086C4.16016 114.664 3.49609 111.92 3.33984 108.854C3.20312 106.412 3.41797 103.561 3.98438 100.299C4.57031 97.0371 5.5957 94.0684 7.06055 91.3926C8.54492 88.6973 10.3125 86.5 12.3633 84.8008C15.7422 82.0273 19.6484 80.6797 24.082 80.7578C28.3008 80.8359 31.6602 82.291 34.1602 85.123C36.6797 87.9551 38.0566 91.7832 38.291 96.6074C38.4082 99.0293 38.1836 101.812 37.6172 104.957C37.0703 108.082 36.1133 110.963 34.7461 113.6C33.3984 116.217 31.7188 118.404 29.707 120.162C26.2305 123.209 22.1777 124.684 17.5488 124.586ZM30.8789 101.529L31.1426 98.4238C31.2598 96.2949 31.0742 94.332 30.5859 92.5352C30.0977 90.7188 29.2676 89.3418 28.0957 88.4043C26.9434 87.4473 25.4785 86.9395 23.7012 86.8809C21.2402 86.8027 19.0527 87.4961 17.1387 88.9609C15.2441 90.4258 13.7012 92.6523 12.5098 95.6406C11.3379 98.6289 10.6543 102.379 10.459 106.891C10.2637 110.465 10.8105 113.277 12.0996 115.328C13.3887 117.379 15.3223 118.443 17.9004 118.521C21.2793 118.619 24.0625 117.35 26.25 114.713C28.457 112.076 29.9023 108.365 30.5859 103.58L30.8789 101.529ZM42.4805 108.121C42.8711 104.859 43.75 101.93 45.1172 99.332C46.4844 96.7344 48.1738 94.8008 50.1855 93.5312C52.1973 92.2422 54.4336 91.627 56.8945 91.6855C60.1172 91.7637 62.6367 92.9648 64.4531 95.2891L67.5 79H74.4727L66.6504 124H60.4395L60.9082 120.719C58.4473 123.395 55.5566 124.693 52.2363 124.615C49.2871 124.576 46.9238 123.443 45.1465 121.217C43.3887 118.971 42.4414 115.992 42.3047 112.281C42.2461 111.07 42.2754 109.889 42.3926 108.736L42.4805 108.121ZM49.2188 110.846C49.082 113.268 49.4531 115.191 50.332 116.617C51.2305 118.043 52.5586 118.775 54.3164 118.814C56.9922 118.893 59.3066 117.594 61.2598 114.918L63.6328 101.295C62.7148 98.8535 60.9375 97.5938 58.3008 97.5156C55.6445 97.4375 53.5059 98.6094 51.8848 101.031C50.2637 103.453 49.375 106.725 49.2188 110.846ZM75.791 108.033C76.123 104.928 77.0312 102.105 78.5156 99.5664C80.0195 97.0273 81.9434 95.0645 84.2871 93.6777C86.6309 92.291 89.2285 91.6367 92.0801 91.7148C94.7949 91.7539 97.1387 92.4766 99.1113 93.8828C101.084 95.2891 102.52 97.2129 103.418 99.6543C104.336 102.096 104.658 104.811 104.385 107.799C104.072 111.158 103.154 114.127 101.631 116.705C100.127 119.283 98.1934 121.266 95.8301 122.652C93.4863 124.02 90.8789 124.664 88.0078 124.586C85.3125 124.547 82.9785 123.834 81.0059 122.447C79.0527 121.041 77.6172 119.127 76.6992 116.705C75.7812 114.264 75.4492 111.578 75.7031 108.648L75.791 108.033ZM82.6172 112.047C82.7148 114.098 83.252 115.748 84.2285 116.998C85.2246 118.229 86.6016 118.873 88.3594 118.932C90.7422 118.99 92.7344 118.072 94.3359 116.178C95.957 114.283 96.9727 111.695 97.3828 108.414L97.5586 105.543C97.5586 103.043 97.0605 101.08 96.0645 99.6543C95.0684 98.2285 93.623 97.4766 91.7285 97.3984C88.7598 97.3203 86.416 98.7754 84.6973 101.764C83.6621 103.58 83.0078 105.67 82.7344 108.033C82.5781 109.674 82.5391 111.012 82.6172 112.047ZM124.863 81.3438L131.104 113.98L148.652 81.3438H158.145L150.762 124H143.555L146.045 109.557L149.824 91.7734L132.246 124H127.031L120.498 90.8066L117.832 110.318L115.459 124H108.252L115.664 81.3438H124.863ZM160.518 108.033C160.85 104.928 161.758 102.105 163.242 99.5664C164.746 97.0273 166.67 95.0645 169.014 93.6777C171.357 92.291 173.955 91.6367 176.807 91.7148C179.521 91.7539 181.865 92.4766 183.838 93.8828C185.811 95.2891 187.246 97.2129 188.145 99.6543C189.062 102.096 189.385 104.811 189.111 107.799C188.799 111.158 187.881 114.127 186.357 116.705C184.854 119.283 182.92 121.266 180.557 122.652C178.213 124.02 175.605 124.664 172.734 124.586C170.039 124.547 167.705 123.834 165.732 122.447C163.779 121.041 162.344 119.127 161.426 116.705C160.508 114.264 160.176 111.578 160.43 108.648L160.518 108.033ZM167.344 112.047C167.441 114.098 167.979 115.748 168.955 116.998C169.951 118.229 171.328 118.873 173.086 118.932C175.469 118.99 177.461 118.072 179.062 116.178C180.684 114.283 181.699 111.695 182.109 108.414L182.285 105.543C182.285 103.043 181.787 101.08 180.791 99.6543C179.795 98.2285 178.35 97.4766 176.455 97.3984C173.486 97.3203 171.143 98.7754 169.424 101.764C168.389 103.58 167.734 105.67 167.461 108.033C167.305 109.674 167.266 111.012 167.344 112.047ZM207.861 84.5957L206.514 92.3008H211.934L211.025 97.5742H205.576L202.588 115.328C202.529 115.816 202.52 116.256 202.559 116.646C202.676 117.916 203.457 118.58 204.902 118.639C205.625 118.639 206.445 118.551 207.363 118.375L206.895 123.941C205.449 124.352 203.994 124.557 202.529 124.557C200.107 124.518 198.291 123.697 197.08 122.096C195.889 120.475 195.42 118.336 195.674 115.68L198.633 97.5742H193.564L194.502 92.3008H199.541L200.889 84.5957H207.861ZM212.783 108.033C213.115 104.928 214.023 102.105 215.508 99.5664C217.012 97.0273 218.936 95.0645 221.279 93.6777C223.623 92.291 226.221 91.6367 229.072 91.7148C231.787 91.7539 234.131 92.4766 236.104 93.8828C238.076 95.2891 239.512 97.2129 240.41 99.6543C241.328 102.096 241.65 104.811 241.377 107.799C241.064 111.158 240.146 114.127 238.623 116.705C237.119 119.283 235.186 121.266 232.822 122.652C230.479 124.02 227.871 124.664 225 124.586C222.305 124.547 219.971 123.834 217.998 122.447C216.045 121.041 214.609 119.127 213.691 116.705C212.773 114.264 212.441 111.578 212.695 108.648L212.783 108.033ZM219.609 112.047C219.707 114.098 220.244 115.748 221.221 116.998C222.217 118.229 223.594 118.873 225.352 118.932C227.734 118.99 229.727 118.072 231.328 116.178C232.949 114.283 233.965 111.695 234.375 108.414L234.551 105.543C234.551 103.043 234.053 101.08 233.057 99.6543C232.061 98.2285 230.615 97.4766 228.721 97.3984C225.752 97.3203 223.408 98.7754 221.689 101.764C220.654 103.58 220 105.67 219.727 108.033C219.57 109.674 219.531 111.012 219.609 112.047Z" fill="#514D50"/>
<defs>
<linearGradient id="paint0_linear_112:298" x1="70.0616" y1="0.7436" x2="70.0616" y2="68.4788" gradientUnits="userSpaceOnUse">
<stop stop-color="#EB0000"/>
<stop offset="0.238" stop-color="#D80000"/>
<stop offset="0.44" stop-color="#C40000"/>
<stop offset="0.629" stop-color="#B10000"/>
<stop offset="0.81" stop-color="#9D0000"/>
<stop offset="0.983" stop-color="#760000"/>
<stop offset="1" stop-color="#4E0000"/>
<stop offset="1" stop-color="#4E0000"/>
</linearGradient>
<linearGradient id="paint1_linear_112:298" x1="104.874" y1="0.7436" x2="104.874" y2="68.4788" gradientUnits="userSpaceOnUse">
<stop stop-color="#C6C3C5"/>
<stop offset="0.238" stop-color="#B3AFB2"/>
<stop offset="0.44" stop-color="#A09B9F"/>
<stop offset="0.629" stop-color="#8D878B"/>
<stop offset="0.81" stop-color="#797378"/>
<stop offset="0.983" stop-color="#656064"/>
<stop offset="1" stop-color="#514D50"/>
</linearGradient>
<linearGradient id="paint2_linear_112:298" x1="153.829" y1="68.4212" x2="118.047" y2="38.1355" gradientUnits="userSpaceOnUse">
<stop stop-color="#837D82"/>
<stop offset="0.247" stop-color="#737378"/>
<stop offset="0.75" stop-color="#474346"/>
<stop offset="1" stop-color="#333032"/>
</linearGradient>
<linearGradient id="paint3_linear_112:298" x1="185.481" y1="1.41817" x2="149.985" y2="31.9093" gradientUnits="userSpaceOnUse">
<stop stop-color="#3E6896"/>
<stop offset="0.247" stop-color="#355881"/>
<stop offset="0.75" stop-color="#1F324E"/>
<stop offset="1" stop-color="#131D32"/>
</linearGradient>
<linearGradient id="paint4_linear_112:298" x1="185.481" y1="1.41817" x2="149.985" y2="31.9093" gradientUnits="userSpaceOnUse">
<stop stop-color="#333032"/>
<stop offset="0.247" stop-color="#474346"/>
<stop offset="0.75" stop-color="#797378"/>
<stop offset="1" stop-color="#837D82"/>
</linearGradient>
<linearGradient id="paint5_linear_112:298" x1="216.781" y1="68.3587" x2="180.999" y2="38.0731" gradientUnits="userSpaceOnUse">
<stop stop-color="#837D82"/>
<stop offset="0.0001" stop-color="#837D82"/>
<stop offset="0.247" stop-color="#797378"/>
<stop offset="0.75" stop-color="#474346"/>
<stop offset="1" stop-color="#333032"/>
</linearGradient>
<linearGradient id="paint6_linear_112:298" x1="33.0805" y1="0.7436" x2="33.0805" y2="68.4788" gradientUnits="userSpaceOnUse">
<stop stop-color="#00F6F6"/>
<stop offset="0.238" stop-color="#00CECE"/>
<stop offset="0.44" stop-color="#00A7A7"/>
<stop offset="0.629" stop-color="#008080"/>
<stop offset="0.81" stop-color="#005959"/>
<stop offset="0.983" stop-color="#003232"/>
<stop offset="1" stop-color="#0098BA"/>
<stop offset="1" stop-color="#0098BA"/>
<stop offset="1" stop-color="#0098BA"/>
<stop offset="1" stop-color="#000A0A"/>
</linearGradient>
</defs>
</svg>
