<svg width="164" height="107" viewBox="0 0 164 107" fill="none" xmlns="http://www.w3.org/2000/svg">
<path d="M68.0175 0L48.1823 65H28.0259L38.3874 31.0557C38.3949 31.0448 38.3982 31.0316 38.3969 31.0184L47.8611 0H68.0175Z" fill="url(#paint0_linear_112:301)"/>
<path d="M91.0127 0L71.1775 65H51.0211L61.1748 31.7257L70.8563 0H91.0127Z" fill="url(#paint1_linear_112:301)"/>
<path d="M110.009 65H90.2955L86.7927 53.2319V53.2224L82.0146 37.1541L91.8759 4L110.009 65Z" fill="url(#paint2_linear_112:301)"/>
<path d="M131.183 2.09955L111.294 2.25094L107.831 14.0122L107.831 14.0217L103.107 30.0806L113.255 63.0638L131.183 2.09955Z" fill="url(#paint3_linear_112:301)"/>
<path d="M131.183 2.09955L111.294 2.25094L107.831 14.0122L107.831 14.0217L103.107 30.0806L113.255 63.0638L131.183 2.09955Z" fill="url(#paint4_linear_112:301)"/>
<path d="M152 65H131.583L127.955 53.2319V53.2224L123.006 37.1541L133.219 4L152 65Z" fill="url(#paint5_linear_112:301)"/>
<g style="mix-blend-mode:screen" opacity="0.4">
<g style="mix-blend-mode:screen" opacity="0.4">
<path d="M65.2209 1.91435L30.7951 63.1715L49.2295 1.91435H65.2209Z" fill="white"/>
</g>
</g>
<g style="mix-blend-mode:screen" opacity="0.4">
<g style="mix-blend-mode:screen" opacity="0.4">
<path d="M88.0658 1.91435L53.64 63.1715L72.0744 1.91435H88.0658Z" fill="white"/>
</g>
</g>
<g style="mix-blend-mode:multiply" opacity="0.3">
<g style="mix-blend-mode:multiply" opacity="0.3">
<path d="M92.1126 4.25926L86.9842 53.3464L82.1616 37.319L92.1126 4.25926Z" fill="black"/>
</g>
</g>
<g style="mix-blend-mode:multiply" opacity="0.3">
<g style="mix-blend-mode:multiply" opacity="0.3">
<path d="M90.5927 0L71.0114 65.0857H51.1131C54.4326 64.8847 57.7428 64.7985 61.0623 64.6454L66.0322 64.4923L70.4799 64.386C71.9532 59.093 73.4731 53.8099 75.0396 48.5367L77.4639 40.401L79.9442 32.2748C81.632 26.867 83.3383 21.4687 85.1007 16.08C85.9958 13.4 86.8723 10.7009 87.7954 8.03043C88.7185 5.36 89.623 2.6599 90.5927 0Z" fill="black"/>
</g>
</g>
<g style="mix-blend-mode:multiply" opacity="0.3">
<g style="mix-blend-mode:multiply" opacity="0.3">
<path d="M90.5927 0L71.0114 65.0857H51.1131C54.4326 64.8847 57.7428 64.7985 61.0623 64.6454L66.0322 64.4923L70.4799 64.386C71.9532 59.093 73.4731 53.8099 75.0396 48.5367L77.4639 40.401L79.9442 32.2748C81.632 26.867 83.3383 21.4687 85.1007 16.08C85.9958 13.4 86.8723 10.7009 87.7954 8.03043C88.7185 5.36 89.623 2.6599 90.5927 0Z" fill="black"/>
</g>
</g>
<g style="mix-blend-mode:multiply" opacity="0.3">
<g style="mix-blend-mode:multiply" opacity="0.3">
<path d="M67.7479 0L48.1666 65.0857H28.2682C31.5877 64.8847 34.8979 64.7985 38.2174 64.6454L43.1873 64.4923L47.6351 64.386C49.1084 59.093 50.6282 53.8099 52.1947 48.5367L54.6191 40.401L57.0994 32.2748C58.7871 26.867 60.4935 21.4687 62.2558 16.08C63.151 13.4 64.0275 10.7009 64.9506 8.03043C65.8737 5.36 66.7782 2.6599 67.7479 0Z" fill="black"/>
</g>
</g>
<g style="mix-blend-mode:multiply" opacity="0.3">
<g style="mix-blend-mode:multiply" opacity="0.3">
<path d="M67.7479 0L48.1666 65.0857H28.2682C31.5877 64.8847 34.8979 64.7985 38.2174 64.6454L43.1873 64.4923L47.6351 64.386C49.1084 59.093 50.6282 53.8099 52.1947 48.5367L54.6191 40.401L57.0994 32.2748C58.7871 26.867 60.4935 21.4687 62.2558 16.08C63.151 13.4 64.0275 10.7009 64.9506 8.03043C65.8737 5.36 66.7782 2.6599 67.7479 0Z" fill="black"/>
</g>
</g>
<g style="mix-blend-mode:multiply" opacity="0.3">
<g style="mix-blend-mode:multiply" opacity="0.3">
<path d="M62.3029 0C59.8972 0.257471 57.4915 0.421143 55.0765 0.545571C53.8736 0.612571 52.6708 0.679571 51.4679 0.717857C50.4702 0.756142 49.4725 0.794427 48.4748 0.81357C48.1671 1.93343 47.8594 3.04467 47.5423 4.16357L46.3954 8.0601C46.0224 9.35128 45.6028 10.6444 45.2112 11.9365C44.8196 13.2287 44.4093 14.5208 43.9897 15.8034C43.5701 17.0859 43.1598 18.3877 42.7123 19.6607C42.2647 20.9337 41.8451 22.2258 41.3882 23.4988C40.4837 26.0448 39.542 28.5621 38.507 31.0602L47.85 0.000956617L62.3029 0Z" fill="black"/>
</g>
</g>
<g style="mix-blend-mode:multiply" opacity="0.3">
<g style="mix-blend-mode:multiply" opacity="0.3">
<path d="M85.4643 0C83.0027 0.257471 80.541 0.421143 78.0794 0.545571C76.8486 0.620866 75.6177 0.678295 74.3869 0.717857C73.3612 0.756143 72.3449 0.794427 71.3192 0.822184L70.3588 4.24014L69.1932 8.22185L67.981 12.1835C67.5801 13.5149 67.1605 14.8252 66.7316 16.1365C66.3026 17.4478 65.883 18.7686 65.4261 20.0799C64.9692 21.3912 64.5496 22.7034 64.0741 23.9956C63.1603 26.6086 62.1906 29.2024 61.1369 31.7676L70.6944 0H85.4643Z" fill="black"/>
</g>
</g>
<g style="mix-blend-mode:multiply" opacity="0.3">
<g style="mix-blend-mode:multiply" opacity="0.3">
<path d="M100.458 64.6348C103.451 64.5305 106.435 64.4435 109.428 64.3774C108.71 62.1664 108.011 59.9553 107.311 57.7349C106.509 55.2175 105.726 52.6903 104.961 50.1533C103.404 45.1006 101.903 40.0182 100.411 34.9453L98.2199 27.3062L96.094 19.6491C95.4039 17.0935 94.7046 14.539 94.0612 11.9739C93.3992 9.39912 92.7185 6.84259 92.1124 4.25926L110.407 65.0857H90.5179C93.8281 64.8693 97.1476 64.7794 100.458 64.6348Z" fill="black"/>
</g>
</g>
<path d="M43.4796 0L23.8983 65.0857H4L14.0238 31.7676L23.5813 0H43.4796Z" fill="url(#paint6_linear_112:301)"/>
<g style="mix-blend-mode:screen" opacity="0.4">
<g style="mix-blend-mode:screen" opacity="0.4">
<path d="M40.9533 1.91435L6.52747 63.1715L24.9619 1.91435H40.9533Z" fill="white"/>
</g>
</g>
<g style="mix-blend-mode:multiply" opacity="0.3">
<g style="mix-blend-mode:multiply" opacity="0.3">
<path d="M43.4796 0L23.8983 65.0857H4C7.3195 64.8847 10.6297 64.7985 13.9492 64.6454L18.9191 64.4923L23.3668 64.386C24.8401 59.093 26.36 53.8099 27.9265 48.5367L30.3508 40.401L32.8311 32.2748C34.5189 26.867 36.2252 21.4687 37.9876 16.08C38.8827 13.4 39.7592 10.7009 40.6823 8.03043C41.6054 5.36 42.5099 2.6599 43.4796 0Z" fill="black"/>
</g>
</g>
<g style="mix-blend-mode:multiply" opacity="0.3">
<g style="mix-blend-mode:multiply" opacity="0.3">
<path d="M43.4796 0L23.8983 65.0857H4C7.3195 64.8847 10.6297 64.7985 13.9492 64.6454L18.9191 64.4923L23.3668 64.386C24.8401 59.093 26.36 53.8099 27.9265 48.5367L30.3508 40.401L32.8311 32.2748C34.5189 26.867 36.2252 21.4687 37.9876 16.08C38.8827 13.4 39.7592 10.7009 40.6823 8.03043C41.6054 5.36 42.5099 2.6599 43.4796 0Z" fill="black"/>
</g>
</g>
<g style="mix-blend-mode:multiply" opacity="0.3">
<g style="mix-blend-mode:multiply" opacity="0.3">
<path d="M38.3512 0C35.8896 0.257471 33.4279 0.421143 30.9663 0.545571C29.7355 0.620866 28.5046 0.678295 27.2738 0.717857C26.2481 0.756143 25.2318 0.794427 24.2061 0.822184L23.2457 4.24014L22.0801 8.22185L20.8679 12.1835C20.467 13.5149 20.0474 14.8252 19.6185 16.1365C19.1895 17.4478 18.7699 18.7686 18.313 20.0799C17.8561 21.3912 17.4365 22.7034 16.961 23.9956C16.0472 26.6086 15.0775 29.2024 14.0238 31.7676L23.5813 0H38.3512Z" fill="black"/>
</g>
</g>
<path d="M32.8011 93.293C31.4144 93.2637 30.1937 92.9316 29.139 92.2969C28.0941 91.6621 27.2787 90.7441 26.6927 89.543C26.1068 88.332 25.7748 86.96 25.6967 85.4268C25.6283 84.2061 25.7357 82.7803 26.0189 81.1494C26.3119 79.5186 26.8246 78.0342 27.557 76.6963C28.2992 75.3486 29.183 74.25 30.2084 73.4004C31.8978 72.0137 33.851 71.3398 36.0677 71.3789C38.1771 71.418 39.8568 72.1455 41.1068 73.5615C42.3666 74.9775 43.0551 76.8916 43.1722 79.3037C43.2308 80.5146 43.1185 81.9062 42.8353 83.4785C42.5619 85.041 42.0834 86.4814 41.3998 87.7998C40.726 89.1084 39.8861 90.2021 38.8802 91.0811C37.142 92.6045 35.1156 93.3418 32.8011 93.293ZM39.4662 81.7646L39.598 80.2119C39.6566 79.1475 39.5638 78.166 39.3197 77.2676C39.0756 76.3594 38.6605 75.6709 38.0746 75.2021C37.4984 74.7236 36.766 74.4697 35.8773 74.4404C34.6469 74.4014 33.5531 74.748 32.5961 75.4805C31.6488 76.2129 30.8773 77.3262 30.2816 78.8203C29.6957 80.3145 29.3539 82.1895 29.2562 84.4453C29.1586 86.2324 29.432 87.6387 30.0765 88.6641C30.7211 89.6895 31.6879 90.2217 32.9769 90.2607C34.6664 90.3096 36.058 89.6748 37.1517 88.3564C38.2552 87.0381 38.9779 85.1826 39.3197 82.79L39.4662 81.7646ZM45.267 85.0605C45.4623 83.4297 45.9017 81.9648 46.5853 80.666C47.2689 79.3672 48.1136 78.4004 49.1195 77.7656C50.1254 77.1211 51.2435 76.8135 52.474 76.8428C54.0853 76.8818 55.3451 77.4824 56.2533 78.6445L57.7767 70.5H61.2631L57.3519 93H54.2465L54.4808 91.3594C53.2504 92.6973 51.8051 93.3467 50.1449 93.3076C48.6703 93.2881 47.4886 92.7217 46.6 91.6084C45.7211 90.4854 45.2474 88.9961 45.1791 87.1406C45.1498 86.5352 45.1644 85.9443 45.223 85.3682L45.267 85.0605ZM48.6361 86.4229C48.5677 87.6338 48.7533 88.5957 49.1927 89.3086C49.642 90.0215 50.306 90.3877 51.1849 90.4072C52.5228 90.4463 53.6801 89.7969 54.6566 88.459L55.8431 81.6475C55.3842 80.4268 54.4955 79.7969 53.1771 79.7578C51.849 79.7188 50.7797 80.3047 49.9691 81.5156C49.1586 82.7266 48.7142 84.3623 48.6361 86.4229ZM61.9222 85.0166C62.0883 83.4639 62.5424 82.0527 63.2845 80.7832C64.0365 79.5137 64.9984 78.5322 66.1703 77.8389C67.3422 77.1455 68.641 76.8184 70.0668 76.8574C71.4242 76.877 72.5961 77.2383 73.5824 77.9414C74.5687 78.6445 75.2865 79.6064 75.7357 80.8271C76.1947 82.0479 76.3558 83.4053 76.2191 84.8994C76.0629 86.5791 75.6039 88.0635 74.8422 89.3525C74.0902 90.6416 73.1234 91.6328 71.9418 92.3262C70.7699 93.0098 69.4662 93.332 68.0306 93.293C66.683 93.2734 65.516 92.917 64.5297 92.2236C63.5531 91.5205 62.8353 90.5635 62.3763 89.3525C61.9174 88.1318 61.7513 86.7891 61.8783 85.3242L61.9222 85.0166ZM65.3353 87.0234C65.3842 88.0488 65.6527 88.874 66.141 89.499C66.639 90.1143 67.3275 90.4365 68.2064 90.4658C69.3978 90.4951 70.3939 90.0361 71.1947 89.0889C72.0052 88.1416 72.5131 86.8477 72.7181 85.207L72.806 83.7715C72.806 82.5215 72.557 81.54 72.059 80.8271C71.5609 80.1143 70.8383 79.7383 69.891 79.6992C68.4066 79.6602 67.2347 80.3877 66.3754 81.8818C65.8578 82.79 65.5306 83.835 65.3939 85.0166C65.3158 85.8369 65.2963 86.5059 65.3353 87.0234ZM86.4584 71.6719L89.5785 87.9902L98.3529 71.6719H103.099L99.4076 93H95.8041L97.0492 85.7783L98.9388 76.8867L90.1498 93H87.5424L84.2758 76.4033L82.9427 86.1592L81.7562 93H78.1527L81.8588 71.6719H86.4584ZM104.286 85.0166C104.452 83.4639 104.906 82.0527 105.648 80.7832C106.4 79.5137 107.362 78.5322 108.534 77.8389C109.705 77.1455 111.004 76.8184 112.43 76.8574C113.787 76.877 114.959 77.2383 115.946 77.9414C116.932 78.6445 117.65 79.6064 118.099 80.8271C118.558 82.0479 118.719 83.4053 118.582 84.8994C118.426 86.5791 117.967 88.0635 117.205 89.3525C116.453 90.6416 115.487 91.6328 114.305 92.3262C113.133 93.0098 111.829 93.332 110.394 93.293C109.046 93.2734 107.879 92.917 106.893 92.2236C105.916 91.5205 105.199 90.5635 104.74 89.3525C104.281 88.1318 104.115 86.7891 104.242 85.3242L104.286 85.0166ZM107.699 87.0234C107.747 88.0488 108.016 88.874 108.504 89.499C109.002 90.1143 109.691 90.4365 110.57 90.4658C111.761 90.4951 112.757 90.0361 113.558 89.0889C114.369 88.1416 114.876 86.8477 115.081 85.207L115.169 83.7715C115.169 82.5215 114.92 81.54 114.422 80.8271C113.924 80.1143 113.202 79.7383 112.254 79.6992C110.77 79.6602 109.598 80.3877 108.739 81.8818C108.221 82.79 107.894 83.835 107.757 85.0166C107.679 85.8369 107.66 86.5059 107.699 87.0234ZM127.957 73.2979L127.284 77.1504H129.994L129.539 79.7871H126.815L125.321 88.6641C125.291 88.9082 125.286 89.1279 125.306 89.3232C125.365 89.958 125.755 90.29 126.478 90.3193C126.839 90.3193 127.249 90.2754 127.708 90.1875L127.474 92.9707C126.751 93.1758 126.024 93.2783 125.291 93.2783C124.08 93.2588 123.172 92.8486 122.567 92.0479C121.971 91.2373 121.737 90.168 121.864 88.8398L123.343 79.7871H120.809L121.278 77.1504H123.797L124.471 73.2979H127.957ZM130.418 85.0166C130.584 83.4639 131.038 82.0527 131.781 80.7832C132.533 79.5137 133.495 78.5322 134.666 77.8389C135.838 77.1455 137.137 76.8184 138.563 76.8574C139.92 76.877 141.092 77.2383 142.078 77.9414C143.065 78.6445 143.783 79.6064 144.232 80.8271C144.691 82.0479 144.852 83.4053 144.715 84.8994C144.559 86.5791 144.1 88.0635 143.338 89.3525C142.586 90.6416 141.62 91.6328 140.438 92.3262C139.266 93.0098 137.962 93.332 136.527 93.293C135.179 93.2734 134.012 92.917 133.026 92.2236C132.049 91.5205 131.331 90.5635 130.872 89.3525C130.413 88.1318 130.247 86.7891 130.374 85.3242L130.418 85.0166ZM133.831 87.0234C133.88 88.0488 134.149 88.874 134.637 89.499C135.135 90.1143 135.824 90.4365 136.703 90.4658C137.894 90.4951 138.89 90.0361 139.691 89.0889C140.501 88.1416 141.009 86.8477 141.214 85.207L141.302 83.7715C141.302 82.5215 141.053 81.54 140.555 80.8271C140.057 80.1143 139.334 79.7383 138.387 79.6992C136.903 79.6602 135.731 80.3877 134.871 81.8818C134.354 82.79 134.027 83.835 133.89 85.0166C133.812 85.8369 133.792 86.5059 133.831 87.0234Z" fill="#514D50"/>
<path d="M7.48828 96.6641H4.91016L3.63867 104H2.19727L3.47461 96.6641H0.914062L1.125 95.4688H7.69922L7.48828 96.6641ZM9.50977 98.3574C10.0371 97.8027 10.6367 97.5332 11.3086 97.5488C11.9102 97.5566 12.3555 97.7695 12.6445 98.1875C12.9375 98.6055 13.0469 99.1836 12.9727 99.9219L12.293 104H10.9043L11.5957 99.9043C11.6152 99.7363 11.6191 99.5801 11.6074 99.4355C11.5566 98.959 11.2754 98.7148 10.7637 98.7031C10.248 98.6953 9.78711 98.9492 9.38086 99.4648L8.58984 104H7.20117L8.75977 95H10.1543L9.50977 98.3574ZM16.6172 104.117C16.0664 104.105 15.5879 103.967 15.1816 103.701C14.7793 103.436 14.4805 103.072 14.2852 102.611C14.0938 102.15 14.0215 101.637 14.0684 101.07L14.0859 100.83C14.1562 100.186 14.3438 99.6074 14.6484 99.0957C14.957 98.5801 15.3398 98.1895 15.7969 97.9238C16.2539 97.6582 16.75 97.5312 17.2852 97.543C18.0781 97.5586 18.6719 97.8535 19.0664 98.4277C19.4648 99.002 19.6152 99.75 19.5176 100.672L19.4355 101.281H15.4453C15.4102 101.785 15.5117 102.191 15.75 102.5C15.9883 102.809 16.3164 102.967 16.7344 102.975C17.332 102.994 17.8828 102.734 18.3867 102.195L19.0898 102.934C18.8242 103.312 18.4746 103.607 18.041 103.818C17.6074 104.025 17.1328 104.125 16.6172 104.117ZM17.209 98.6797C16.4746 98.6562 15.9238 99.1758 15.5566 100.238L18.1875 100.244L18.2109 100.121C18.2383 99.9414 18.2402 99.7656 18.2168 99.5938C18.1738 99.3164 18.0645 99.0977 17.8887 98.9375C17.7129 98.7773 17.4863 98.6914 17.209 98.6797ZM28.5527 100.385H25.2246L24.5977 104H23.1504L24.627 95.4688H29.9004L29.6895 96.6641H25.8691L25.4297 99.2012H28.7637L28.5527 100.385ZM30.9492 104H29.5605L31.125 95H32.5137L30.9492 104ZM35.3789 104.117C34.8281 104.105 34.3496 103.967 33.9434 103.701C33.541 103.436 33.2422 103.072 33.0469 102.611C32.8555 102.15 32.7832 101.637 32.8301 101.07L32.8477 100.83C32.918 100.186 33.1055 99.6074 33.4102 99.0957C33.7188 98.5801 34.1016 98.1895 34.5586 97.9238C35.0156 97.6582 35.5117 97.5312 36.0469 97.543C36.8398 97.5586 37.4336 97.8535 37.8281 98.4277C38.2266 99.002 38.377 99.75 38.2793 100.672L38.1973 101.281H34.207C34.1719 101.785 34.2734 102.191 34.5117 102.5C34.75 102.809 35.0781 102.967 35.4961 102.975C36.0938 102.994 36.6445 102.734 37.1484 102.195L37.8516 102.934C37.5859 103.312 37.2363 103.607 36.8027 103.818C36.3691 104.025 35.8945 104.125 35.3789 104.117ZM35.9707 98.6797C35.2363 98.6562 34.6855 99.1758 34.3184 100.238L36.9492 100.244L36.9727 100.121C37 99.9414 37.002 99.7656 36.9785 99.5938C36.9355 99.3164 36.8262 99.0977 36.6504 98.9375C36.4746 98.7773 36.248 98.6914 35.9707 98.6797ZM41.6836 104.117C41.1328 104.105 40.6543 103.967 40.248 103.701C39.8457 103.436 39.5469 103.072 39.3516 102.611C39.1602 102.15 39.0879 101.637 39.1348 101.07L39.1523 100.83C39.2227 100.186 39.4102 99.6074 39.7148 99.0957C40.0234 98.5801 40.4062 98.1895 40.8633 97.9238C41.3203 97.6582 41.8164 97.5312 42.3516 97.543C43.1445 97.5586 43.7383 97.8535 44.1328 98.4277C44.5312 99.002 44.6816 99.75 44.584 100.672L44.502 101.281H40.5117C40.4766 101.785 40.5781 102.191 40.8164 102.5C41.0547 102.809 41.3828 102.967 41.8008 102.975C42.3984 102.994 42.9492 102.734 43.4531 102.195L44.1562 102.934C43.8906 103.312 43.541 103.607 43.1074 103.818C42.6738 104.025 42.1992 104.125 41.6836 104.117ZM42.2754 98.6797C41.541 98.6562 40.9902 99.1758 40.623 100.238L43.2539 100.244L43.2773 100.121C43.3047 99.9414 43.3066 99.7656 43.2832 99.5938C43.2402 99.3164 43.1309 99.0977 42.9551 98.9375C42.7793 98.7773 42.5527 98.6914 42.2754 98.6797ZM48.2285 96.1191L47.959 97.6602H49.043L48.8613 98.7148H47.7715L47.1738 102.266C47.1621 102.363 47.1602 102.451 47.168 102.529C47.1914 102.783 47.3477 102.916 47.6367 102.928C47.7812 102.928 47.9453 102.91 48.1289 102.875L48.0352 103.988C47.7461 104.07 47.4551 104.111 47.1621 104.111C46.6777 104.104 46.3145 103.939 46.0723 103.619C45.834 103.295 45.7402 102.867 45.791 102.336L46.3828 98.7148H45.3691L45.5566 97.6602H46.5645L46.834 96.1191H48.2285ZM55.4766 95.4688L56.7246 101.996L60.2344 95.4688H62.1328L60.6562 104H59.2148L59.7129 101.111L60.4688 97.5547L56.9531 104H55.9102L54.6035 97.3613L54.0703 101.264L53.5957 104H52.1543L53.6367 95.4688H55.4766ZM66.041 104C65.9941 103.844 65.9746 103.646 65.9824 103.408C65.459 103.896 64.8945 104.133 64.2891 104.117C63.7383 104.109 63.2812 103.934 62.918 103.59C62.5586 103.242 62.3906 102.803 62.4141 102.271C62.4453 101.604 62.7344 101.078 63.2812 100.695C63.8281 100.312 64.5625 100.121 65.4844 100.121L66.3867 100.133L66.4688 99.6992C66.4922 99.5469 66.4922 99.4043 66.4688 99.2715C66.3906 98.8496 66.1113 98.6328 65.6309 98.6211C65.334 98.6133 65.0723 98.6895 64.8457 98.8496C64.623 99.0059 64.4863 99.2168 64.4355 99.4824L63.0469 99.4941C63.0742 99.1035 63.2129 98.7617 63.4629 98.4688C63.7129 98.1719 64.0449 97.9414 64.459 97.7773C64.873 97.6133 65.3105 97.5352 65.7715 97.543C66.4629 97.5586 67.002 97.7676 67.3887 98.1699C67.7754 98.5684 67.9355 99.0859 67.8691 99.7227L67.3828 102.693L67.3359 103.221C67.3242 103.451 67.3535 103.676 67.4238 103.895L67.418 104H66.041ZM64.6113 102.98C64.9043 102.988 65.1758 102.922 65.4258 102.781C65.6758 102.637 65.8887 102.451 66.0645 102.225L66.2812 101.023L65.6191 101.018C65.0957 101.018 64.6777 101.117 64.3652 101.316C64.0527 101.512 63.875 101.781 63.832 102.125C63.8008 102.387 63.8574 102.594 64.002 102.746C64.1504 102.895 64.3535 102.973 64.6113 102.98ZM71.0215 97.6543L70.8809 98.3984C71.4238 97.8125 72.0508 97.5273 72.7617 97.543C73.3555 97.5547 73.7949 97.7676 74.0801 98.1816C74.3652 98.5918 74.4707 99.166 74.3965 99.9043L73.7109 104H72.3223L73.0137 99.8867C73.0332 99.7188 73.0352 99.5625 73.0195 99.418C72.9688 98.9531 72.6914 98.7148 72.1875 98.7031C71.6602 98.6953 71.1973 98.9551 70.7988 99.4824L70.0078 104H68.6191L69.7148 97.6602L71.0215 97.6543ZM78.9434 104C78.8965 103.844 78.877 103.646 78.8848 103.408C78.3613 103.896 77.7969 104.133 77.1914 104.117C76.6406 104.109 76.1836 103.934 75.8203 103.59C75.4609 103.242 75.293 102.803 75.3164 102.271C75.3477 101.604 75.6367 101.078 76.1836 100.695C76.7305 100.312 77.4648 100.121 78.3867 100.121L79.2891 100.133L79.3711 99.6992C79.3945 99.5469 79.3945 99.4043 79.3711 99.2715C79.293 98.8496 79.0137 98.6328 78.5332 98.6211C78.2363 98.6133 77.9746 98.6895 77.748 98.8496C77.5254 99.0059 77.3887 99.2168 77.3379 99.4824L75.9492 99.4941C75.9766 99.1035 76.1152 98.7617 76.3652 98.4688C76.6152 98.1719 76.9473 97.9414 77.3613 97.7773C77.7754 97.6133 78.2129 97.5352 78.6738 97.543C79.3652 97.5586 79.9043 97.7676 80.291 98.1699C80.6777 98.5684 80.8379 99.0859 80.7715 99.7227L80.2852 102.693L80.2383 103.221C80.2266 103.451 80.2559 103.676 80.3262 103.895L80.3203 104H78.9434ZM77.5137 102.98C77.8066 102.988 78.0781 102.922 78.3281 102.781C78.5781 102.637 78.791 102.451 78.9668 102.225L79.1836 101.023L78.5215 101.018C77.998 101.018 77.5801 101.117 77.2676 101.316C76.9551 101.512 76.7773 101.781 76.7344 102.125C76.7031 102.387 76.7598 102.594 76.9043 102.746C77.0527 102.895 77.2559 102.973 77.5137 102.98ZM81.8555 100.824C81.9297 100.191 82.0996 99.6191 82.3652 99.1074C82.6348 98.5957 82.9727 98.2051 83.3789 97.9355C83.7852 97.6621 84.25 97.5293 84.7734 97.5371C85.4688 97.5527 85.9941 97.8086 86.3496 98.3047L86.5664 97.6543L87.832 97.6602L86.7832 103.824C86.666 104.652 86.3164 105.311 85.7344 105.799C85.1562 106.291 84.4512 106.525 83.6191 106.502C83.1738 106.494 82.752 106.393 82.3535 106.197C81.9551 106.002 81.6348 105.744 81.3926 105.424L82.1309 104.586C82.502 105.098 82.9863 105.361 83.584 105.377C84.0371 105.393 84.4258 105.268 84.75 105.002C85.0781 104.74 85.2969 104.365 85.4062 103.877L85.5059 103.432C85.0176 103.904 84.4629 104.133 83.8418 104.117C83.248 104.109 82.7715 103.885 82.4121 103.443C82.0566 103.002 81.8613 102.408 81.8262 101.662C81.8145 101.428 81.8242 101.148 81.8555 100.824ZM83.2324 100.947C83.209 101.146 83.2012 101.361 83.209 101.592C83.2168 102.006 83.3105 102.334 83.4902 102.576C83.6699 102.818 83.9258 102.945 84.2578 102.957C84.7852 102.977 85.2461 102.732 85.6406 102.225L86.1387 99.4238C85.9355 98.959 85.5742 98.7188 85.0547 98.7031C84.5859 98.6914 84.1914 98.873 83.8711 99.248C83.5508 99.623 83.3418 100.148 83.2441 100.824L83.2324 100.947ZM91.0664 104.117C90.5156 104.105 90.0371 103.967 89.6309 103.701C89.2285 103.436 88.9297 103.072 88.7344 102.611C88.543 102.15 88.4707 101.637 88.5176 101.07L88.5352 100.83C88.6055 100.186 88.793 99.6074 89.0977 99.0957C89.4062 98.5801 89.7891 98.1895 90.2461 97.9238C90.7031 97.6582 91.1992 97.5312 91.7344 97.543C92.5273 97.5586 93.1211 97.8535 93.5156 98.4277C93.9141 99.002 94.0645 99.75 93.9668 100.672L93.8848 101.281H89.8945C89.8594 101.785 89.9609 102.191 90.1992 102.5C90.4375 102.809 90.7656 102.967 91.1836 102.975C91.7812 102.994 92.332 102.734 92.8359 102.195L93.5391 102.934C93.2734 103.312 92.9238 103.607 92.4902 103.818C92.0566 104.025 91.582 104.125 91.0664 104.117ZM91.6582 98.6797C90.9238 98.6562 90.373 99.1758 90.0059 100.238L92.6367 100.244L92.6602 100.121C92.6875 99.9414 92.6895 99.7656 92.666 99.5938C92.623 99.3164 92.5137 99.0977 92.3379 98.9375C92.1621 98.7773 91.9355 98.6914 91.6582 98.6797ZM96.8965 97.6543L96.7734 98.3281C97.2969 97.7891 97.9219 97.5273 98.6484 97.543C99.0469 97.5508 99.377 97.6426 99.6387 97.8184C99.9043 97.9941 100.084 98.2266 100.178 98.5156C100.764 97.8516 101.436 97.5273 102.193 97.543C102.811 97.5586 103.268 97.7715 103.564 98.1816C103.865 98.5879 103.979 99.1582 103.904 99.8926L103.219 104H101.83L102.521 99.8809C102.541 99.709 102.543 99.5508 102.527 99.4062C102.465 98.9492 102.176 98.7148 101.66 98.7031C101.086 98.6875 100.633 99.002 100.301 99.6465L100.283 99.7754L99.5566 104H98.1621L98.8535 99.8984C98.873 99.7305 98.875 99.5742 98.8594 99.4297C98.7969 98.957 98.5078 98.7148 97.9922 98.7031C97.4727 98.6953 97.0391 98.9277 96.6914 99.4004L95.8887 104H94.5L95.5957 97.6602L96.8965 97.6543ZM107.566 104.117C107.016 104.105 106.537 103.967 106.131 103.701C105.729 103.436 105.43 103.072 105.234 102.611C105.043 102.15 104.971 101.637 105.018 101.07L105.035 100.83C105.105 100.186 105.293 99.6074 105.598 99.0957C105.906 98.5801 106.289 98.1895 106.746 97.9238C107.203 97.6582 107.699 97.5312 108.234 97.543C109.027 97.5586 109.621 97.8535 110.016 98.4277C110.414 99.002 110.564 99.75 110.467 100.672L110.385 101.281H106.395C106.359 101.785 106.461 102.191 106.699 102.5C106.938 102.809 107.266 102.967 107.684 102.975C108.281 102.994 108.832 102.734 109.336 102.195L110.039 102.934C109.773 103.312 109.424 103.607 108.99 103.818C108.557 104.025 108.082 104.125 107.566 104.117ZM108.158 98.6797C107.424 98.6562 106.873 99.1758 106.506 100.238L109.137 100.244L109.16 100.121C109.188 99.9414 109.189 99.7656 109.166 99.5938C109.123 99.3164 109.014 99.0977 108.838 98.9375C108.662 98.7773 108.436 98.6914 108.158 98.6797ZM113.385 97.6543L113.244 98.3984C113.787 97.8125 114.414 97.5273 115.125 97.543C115.719 97.5547 116.158 97.7676 116.443 98.1816C116.729 98.5918 116.834 99.166 116.76 99.9043L116.074 104H114.686L115.377 99.8867C115.396 99.7188 115.398 99.5625 115.383 99.418C115.332 98.9531 115.055 98.7148 114.551 98.7031C114.023 98.6953 113.561 98.9551 113.162 99.4824L112.371 104H110.982L112.078 97.6602L113.385 97.6543ZM120.65 96.1191L120.381 97.6602H121.465L121.283 98.7148H120.193L119.596 102.266C119.584 102.363 119.582 102.451 119.59 102.529C119.613 102.783 119.77 102.916 120.059 102.928C120.203 102.928 120.367 102.91 120.551 102.875L120.457 103.988C120.168 104.07 119.877 104.111 119.584 104.111C119.1 104.104 118.736 103.939 118.494 103.619C118.256 103.295 118.162 102.867 118.213 102.336L118.805 98.7148H117.791L117.979 97.6602H118.986L119.256 96.1191H120.65ZM129.293 101.762C129.379 101.199 129.072 100.781 128.373 100.508L127.898 100.332C127.016 100.023 126.389 99.6582 126.018 99.2363C125.646 98.8145 125.479 98.3242 125.514 97.7656C125.545 97.2812 125.709 96.8555 126.006 96.4883C126.307 96.1172 126.701 95.832 127.189 95.6328C127.678 95.4336 128.197 95.3398 128.748 95.3516C129.279 95.3633 129.752 95.4805 130.166 95.7031C130.58 95.9219 130.896 96.2285 131.115 96.623C131.334 97.0137 131.436 97.4609 131.42 97.9648L129.979 97.959C130.006 97.5137 129.906 97.168 129.68 96.9219C129.457 96.6758 129.119 96.5469 128.666 96.5352C128.209 96.5273 127.822 96.6348 127.506 96.8574C127.193 97.0801 127.01 97.3809 126.955 97.7598C126.877 98.2559 127.209 98.6465 127.951 98.9316L128.391 99.0898C129.285 99.4102 129.91 99.7871 130.266 100.221C130.621 100.65 130.777 101.16 130.734 101.75C130.695 102.23 130.537 102.65 130.26 103.01C129.982 103.365 129.598 103.641 129.105 103.836C128.617 104.031 128.078 104.125 127.488 104.117C126.93 104.113 126.422 103.996 125.965 103.766C125.512 103.535 125.164 103.217 124.922 102.811C124.68 102.4 124.568 101.936 124.588 101.416L126.035 101.422C126.004 101.906 126.123 102.279 126.393 102.541C126.662 102.803 127.049 102.938 127.553 102.945C128.021 102.953 128.412 102.854 128.725 102.646C129.041 102.439 129.23 102.145 129.293 101.762ZM134.016 101.949L136.008 97.6602H137.543L133.787 105.096C133.264 106.096 132.574 106.59 131.719 106.578C131.508 106.57 131.268 106.531 130.998 106.461L131.115 105.359L131.367 105.383C131.703 105.395 131.98 105.33 132.199 105.189C132.418 105.053 132.602 104.838 132.75 104.545L133.084 103.889L132.023 97.6602H133.465L134.016 101.949ZM141.053 102.242C141.119 101.855 140.867 101.588 140.297 101.439C139.73 101.287 139.344 101.166 139.137 101.076C138.332 100.732 137.943 100.209 137.971 99.5059C137.99 98.9355 138.248 98.4648 138.744 98.0938C139.244 97.7188 139.842 97.5352 140.537 97.543C141.209 97.5508 141.756 97.7402 142.178 98.1113C142.604 98.4824 142.812 98.9688 142.805 99.5703L141.428 99.5645C141.436 99.2715 141.355 99.043 141.188 98.8789C141.02 98.7109 140.789 98.623 140.496 98.6152C140.188 98.6152 139.922 98.6914 139.699 98.8438C139.48 98.9961 139.354 99.1953 139.318 99.4414C139.264 99.7969 139.514 100.045 140.068 100.186C140.623 100.322 141.033 100.449 141.299 100.566C142.072 100.906 142.445 101.438 142.418 102.16C142.398 102.562 142.266 102.914 142.02 103.215C141.777 103.512 141.451 103.74 141.041 103.9C140.631 104.057 140.195 104.129 139.734 104.117C139.043 104.109 138.469 103.908 138.012 103.514C137.559 103.119 137.336 102.613 137.344 101.996L138.686 102.002C138.693 102.342 138.795 102.6 138.99 102.775C139.186 102.951 139.453 103.041 139.793 103.045C140.137 103.045 140.422 102.975 140.648 102.834C140.879 102.689 141.014 102.492 141.053 102.242ZM146.443 96.1191L146.174 97.6602H147.258L147.076 98.7148H145.986L145.389 102.266C145.377 102.363 145.375 102.451 145.383 102.529C145.406 102.783 145.562 102.916 145.852 102.928C145.996 102.928 146.16 102.91 146.344 102.875L146.25 103.988C145.961 104.07 145.67 104.111 145.377 104.111C144.893 104.104 144.529 103.939 144.287 103.619C144.049 103.295 143.955 102.867 144.006 102.336L144.598 98.7148H143.584L143.771 97.6602H144.779L145.049 96.1191H146.443ZM150.141 104.117C149.59 104.105 149.111 103.967 148.705 103.701C148.303 103.436 148.004 103.072 147.809 102.611C147.617 102.15 147.545 101.637 147.592 101.07L147.609 100.83C147.68 100.186 147.867 99.6074 148.172 99.0957C148.48 98.5801 148.863 98.1895 149.32 97.9238C149.777 97.6582 150.273 97.5312 150.809 97.543C151.602 97.5586 152.195 97.8535 152.59 98.4277C152.988 99.002 153.139 99.75 153.041 100.672L152.959 101.281H148.969C148.934 101.785 149.035 102.191 149.273 102.5C149.512 102.809 149.84 102.967 150.258 102.975C150.855 102.994 151.406 102.734 151.91 102.195L152.613 102.934C152.348 103.312 151.998 103.607 151.564 103.818C151.131 104.025 150.656 104.125 150.141 104.117ZM150.732 98.6797C149.998 98.6562 149.447 99.1758 149.08 100.238L151.711 100.244L151.734 100.121C151.762 99.9414 151.764 99.7656 151.74 99.5938C151.697 99.3164 151.588 99.0977 151.412 98.9375C151.236 98.7773 151.01 98.6914 150.732 98.6797ZM155.971 97.6543L155.848 98.3281C156.371 97.7891 156.996 97.5273 157.723 97.543C158.121 97.5508 158.451 97.6426 158.713 97.8184C158.979 97.9941 159.158 98.2266 159.252 98.5156C159.838 97.8516 160.51 97.5273 161.268 97.543C161.885 97.5586 162.342 97.7715 162.639 98.1816C162.939 98.5879 163.053 99.1582 162.979 99.8926L162.293 104H160.904L161.596 99.8809C161.615 99.709 161.617 99.5508 161.602 99.4062C161.539 98.9492 161.25 98.7148 160.734 98.7031C160.16 98.6875 159.707 99.002 159.375 99.6465L159.357 99.7754L158.631 104H157.236L157.928 99.8984C157.947 99.7305 157.949 99.5742 157.934 99.4297C157.871 98.957 157.582 98.7148 157.066 98.7031C156.547 98.6953 156.113 98.9277 155.766 99.4004L154.963 104H153.574L154.67 97.6602L155.971 97.6543Z" fill="#514D50"/>
<defs>
<linearGradient id="paint0_linear_112:301" x1="48.0217" y1="0.715" x2="48.0217" y2="65.845" gradientUnits="userSpaceOnUse">
<stop stop-color="#EB0000"/>
<stop offset="0.238" stop-color="#D80000"/>
<stop offset="0.44" stop-color="#C40000"/>
<stop offset="0.629" stop-color="#B10000"/>
<stop offset="0.81" stop-color="#9D0000"/>
<stop offset="0.983" stop-color="#760000"/>
<stop offset="1" stop-color="#4E0000"/>
<stop offset="1" stop-color="#4E0000"/>
</linearGradient>
<linearGradient id="paint1_linear_112:301" x1="71.0169" y1="0.715" x2="71.0169" y2="65.845" gradientUnits="userSpaceOnUse">
<stop stop-color="#C6C3C5"/>
<stop offset="0.238" stop-color="#B3AFB2"/>
<stop offset="0.44" stop-color="#A09B9F"/>
<stop offset="0.629" stop-color="#8D878B"/>
<stop offset="0.81" stop-color="#797378"/>
<stop offset="0.983" stop-color="#656064"/>
<stop offset="1" stop-color="#514D50"/>
</linearGradient>
<linearGradient id="paint2_linear_112:301" x1="102.646" y1="65.793" x2="72.5" y2="48.6043" gradientUnits="userSpaceOnUse">
<stop stop-color="#837D82"/>
<stop offset="0.247" stop-color="#737378"/>
<stop offset="0.75" stop-color="#474346"/>
<stop offset="1" stop-color="#333032"/>
</linearGradient>
<linearGradient id="paint3_linear_112:301" x1="123.75" y1="1.36541" x2="93.6029" y2="19.0163" gradientUnits="userSpaceOnUse">
<stop stop-color="#3E6896"/>
<stop offset="0.247" stop-color="#355881"/>
<stop offset="0.75" stop-color="#1F324E"/>
<stop offset="1" stop-color="#131D32"/>
</linearGradient>
<linearGradient id="paint4_linear_112:301" x1="123.75" y1="1.36541" x2="93.6029" y2="19.0163" gradientUnits="userSpaceOnUse">
<stop stop-color="#333032"/>
<stop offset="0.247" stop-color="#474346"/>
<stop offset="0.75" stop-color="#797378"/>
<stop offset="1" stop-color="#837D82"/>
</linearGradient>
<linearGradient id="paint5_linear_112:301" x1="144.375" y1="65.793" x2="113.699" y2="47.6777" gradientUnits="userSpaceOnUse">
<stop stop-color="#837D82"/>
<stop offset="0.0001" stop-color="#837D82"/>
<stop offset="0.247" stop-color="#797378"/>
<stop offset="0.75" stop-color="#474346"/>
<stop offset="1" stop-color="#333032"/>
</linearGradient>
<linearGradient id="paint6_linear_112:301" x1="23.7398" y1="0.715943" x2="23.7398" y2="65.9318" gradientUnits="userSpaceOnUse">
<stop stop-color="#00F6F6"/>
<stop offset="0.238" stop-color="#00CECE"/>
<stop offset="0.44" stop-color="#00A7A7"/>
<stop offset="0.629" stop-color="#008080"/>
<stop offset="0.81" stop-color="#005959"/>
<stop offset="0.983" stop-color="#003232"/>
<stop offset="1" stop-color="#0098BA"/>
<stop offset="1" stop-color="#0098BA"/>
<stop offset="1" stop-color="#0098BA"/>
<stop offset="1" stop-color="#000A0A"/>
</linearGradient>
</defs>
</svg>
